<?xml version="1.0" standalone="no"?>
<!DOCTYPE svg PUBLIC "-//W3C//DTD SVG 20010904//EN"
 "http://www.w3.org/TR/2001/REC-SVG-20010904/DTD/svg10.dtd">
<svg version="1.0" xmlns="http://www.w3.org/2000/svg"
 width="800.000000pt" height="800.000000pt" viewBox="0 0 800.000000 800.000000"
 preserveAspectRatio="xMidYMid meet">
<metadata>
Created by potrace 1.14, written by Peter Selinger 2001-2017
</metadata>
<g transform="translate(0.000000,800.000000) scale(0.100000,-0.100000)"
fill="#000000" stroke="none">
<path d="M1206 6373 c-1 -1 -235 -3 -520 -3 l-517 -2 -8 -21 c-5 -12 -6 -28
-3 -35 2 -7 5 -41 6 -75 l1 -62 42 -1 c24 0 45 -3 49 -6 3 -4 6 -45 7 -91 1
-47 6 -89 10 -93 4 -5 22 -9 40 -10 18 -1 35 -2 38 -3 3 -1 7 -25 7 -53 3 -94
9 -130 23 -139 12 -8 51 -13 72 -10 4 0 7 -7 8 -17 5 -144 14 -168 69 -177 32
-5 37 -10 34 -31 -1 -13 1 -36 5 -51 6 -24 13 -28 43 -28 20 0 39 -3 43 -6 3
-4 7 -43 8 -87 1 -45 8 -87 14 -93 6 -6 25 -12 41 -13 17 -1 34 -5 38 -9 5 -4
10 -38 11 -74 4 -78 19 -106 64 -119 30 -9 34 -14 37 -49 1 -21 5 -41 7 -43 2
-3 23 -6 46 -8 23 -2 43 -5 46 -7 10 -10 8 -2227 -2 -2228 -5 -1 -22 -2 -37
-3 -49 -5 -57 -21 -60 -114 l-3 -86 -38 -1 c-55 -2 -61 -14 -62 -111 -1 -96
-5 -102 -65 -98 l-40 2 0 -53 c0 -45 -3 -53 -17 -51 -10 2 -28 -1 -40 -7 -23
-10 -32 -43 -38 -140 -2 -23 -4 -44 -4 -47 -1 -3 -20 -6 -43 -7 -22 -1 -44 -7
-49 -14 -4 -7 -7 -44 -7 -83 0 -39 -1 -78 -1 -86 -1 -11 -14 -15 -47 -17 -25
0 -48 -4 -51 -6 -3 -3 -5 -26 -6 -51 -1 -44 -2 -46 -33 -52 -48 -9 -56 -25
-60 -112 l-3 -77 -42 -2 c-23 -2 -45 -5 -47 -8 -10 -10 -19 -105 -10 -105 5 0
5 -8 0 -17 -11 -24 -6 -143 7 -156 7 -7 1147 -10 3528 -9 1935 2 3525 2 3533
3 8 0 137 0 285 0 149 1 284 1 300 2 l30 2 1 123 c0 142 -7 162 -62 162 -19 0
-34 3 -35 8 -1 4 -3 25 -4 47 -9 104 -16 126 -41 135 -13 5 -31 7 -39 4 -15
-6 -17 4 -18 84 0 12 -3 22 -6 23 -3 1 -26 2 -51 3 l-44 1 -1 88 c-1 99 -8
111 -63 112 -36 1 -37 2 -39 43 0 23 -2 43 -3 45 -1 1 -4 20 -6 42 -6 50 -16
61 -59 69 -32 6 -35 10 -36 44 -1 20 -1 43 0 50 1 8 -9 12 -31 11 -66 -4 -64
-7 -66 92 -1 51 -6 97 -12 104 -5 6 -25 11 -45 10 -20 -1 -38 2 -41 6 -2 4 -7
41 -9 81 -5 78 -15 96 -60 104 -16 3 -31 7 -34 9 -8 9 -6 2227 3 2232 5 4 24
6 43 5 42 -2 50 16 52 117 1 41 3 77 6 79 2 2 23 5 47 6 l43 1 5 49 c5 49 5
49 43 51 21 0 42 7 47 14 4 8 7 51 6 97 -1 91 -6 85 61 88 30 1 42 16 47 56 2
19 4 38 5 41 0 4 14 9 31 12 41 9 58 41 64 122 2 39 5 71 5 73 1 1 16 2 35 2
48 0 59 20 63 113 2 45 6 83 8 85 2 3 21 6 41 8 44 3 44 3 48 49 4 40 18 55
52 55 15 0 26 10 35 31 16 40 20 249 5 255 -11 4 -6626 11 -6630 7z"/>
</g>
</svg>
