<svg width="59pt" height="39pt" viewBox="-0.6 -0.6 60 40" xmlns="http://www.w3.org/2000/svg"><g id="fontsvg1667999159751" stroke-linecap="round" fill-rule="evenodd" stroke="#ffffff" stroke-width="0.3mm" fill="#000000"><path d="M 28.5 35.95 L 54.05 35.95 L 49.45 28.2 L 49.45 8.95 L 54.05 1.25 L 30.4 1.25 L 35 9 L 24.85 9 L 30.15 1.25 L 2.75 1.25 L 7.35 8.95 L 7.35 28.2 L 2.75 35.95 L 24.9 35.95 L 18.15 26.9 L 18.15 21.55 L 26.85 33.25 L 35.5 21.55 L 35.5 26.55 L 28.5 35.95 Z M 51.35 4 L 48.2 9.2 L 48.2 29.45 L 51.35 34.7 L 33.2 34.7 L 38.25 27.95 L 38.25 15.15 L 27.6 29.6 L 16.9 15.2 L 16.9 28.3 L 21.65 34.7 L 6.95 34.7 L 10.1 29.45 L 10.1 9.2 L 6.95 4 L 27.1 4 L 21.75 11.75 L 39.05 11.75 L 34.2 4 L 51.35 4 Z M 58.3 0 L 52.2 10.15 L 52.2 28.45 L 58.25 38.7 L 0 38.7 L 6.1 28.45 L 6.1 10.3 L 0.05 0 L 58.3 0 Z M 15.65 29.7 L 15.65 9.9 L 18.8 14.1 L 23.8 6.75 L 11.25 6.75 L 12.85 9.4 L 12.85 30.8 L 11.25 33.45 L 18.4 33.45 L 15.65 29.7 Z M 37.95 33.45 L 48.5 33.45 L 46.95 30.7 L 46.95 9.35 L 48.55 6.75 L 38 6.75 L 43 14.5 L 41 14.5 L 41 29.35 L 37.95 33.45 Z M 19.1 14.5 L 28.25 26.8 L 37.2 14.5 L 19.1 14.5 Z M 32.9 7.7 L 31.15 4.75 L 29.2 7.7 L 32.9 7.7 Z" vector-effect="non-scaling-stroke"/></g></svg>