<svg id="svg" version="1.1" xmlns="http://www.w3.org/2000/svg" xmlns:xlink="http://www.w3.org/1999/xlink" width="400" height="344.3037974683544" viewBox="0, 0, 400,344.3037974683544"><g id="svgg"><path id="path0" d="M77.692 64.794 C 75.228 64.928,65.165 65.055,55.330 65.077 L 37.447 65.116 36.287 66.001 C 34.112 67.660,33.986 68.104,34.823 71.188 C 35.658 74.266,36.720 76.394,37.555 76.658 C 39.017 77.122,39.894 78.683,40.407 81.735 C 40.979 85.136,41.494 86.112,43.417 87.441 C 44.157 87.953,44.769 88.580,44.776 88.834 C 44.797 89.571,46.597 91.888,47.620 92.494 C 48.441 92.981,50.301 97.400,50.301 98.863 C 50.301 99.440,52.790 102.852,53.553 103.321 C 54.328 103.798,55.500 106.826,56.007 109.662 C 56.178 110.616,56.699 111.404,57.933 112.572 L 59.625 114.174 59.528 177.285 L 59.432 240.396 58.038 241.748 C 56.517 243.225,55.352 245.208,54.961 246.992 C 54.565 248.793,53.510 250.885,52.337 252.196 C 49.877 254.943,48.579 257.693,48.579 260.153 C 48.579 260.615,47.868 261.615,46.770 262.697 C 45.775 263.678,44.740 264.898,44.469 265.407 C 44.199 265.917,43.423 266.749,42.747 267.257 C 41.005 268.562,40.778 269.003,39.454 273.628 C 38.947 275.403,38.465 276.144,35.314 280.007 C 35.125 280.239,34.505 281.041,33.936 281.790 C 33.368 282.538,32.576 283.332,32.176 283.554 C 30.228 284.636,30.066 286.913,31.858 288.021 C 32.978 288.713,33.365 288.717,98.994 288.717 L 165.005 288.717 166.823 288.000 C 169.751 286.846,169.733 286.169,166.702 283.533 C 164.653 281.750,163.891 280.505,162.810 277.175 C 162.110 275.019,160.618 272.826,159.477 272.275 C 158.997 272.044,158.197 271.107,157.700 270.193 C 157.187 269.251,156.126 268.050,155.251 267.421 C 153.700 266.308,153.310 265.511,152.435 261.671 C 152.289 261.028,151.317 259.792,149.862 258.398 C 148.576 257.166,147.036 255.352,146.439 254.367 C 145.842 253.382,145.059 252.482,144.698 252.367 C 144.337 252.252,143.449 251.323,142.725 250.302 C 142.000 249.281,139.693 246.616,137.598 244.378 C 134.143 240.688,133.715 240.086,132.997 237.898 C 131.964 234.750,131.598 234.059,130.009 232.255 C 128.200 230.201,128.248 230.660,128.240 215.159 C 128.233 198.350,127.965 199.637,131.452 199.723 C 134.633 199.802,134.740 199.891,135.777 203.301 C 136.597 206.000,138.334 208.786,139.563 209.375 C 140.050 209.608,140.864 210.540,141.372 211.446 C 141.880 212.351,142.899 213.557,143.637 214.126 C 144.374 214.694,145.237 215.590,145.555 216.117 C 145.872 216.643,146.909 217.801,147.859 218.690 C 149.776 220.483,150.378 221.472,151.139 224.075 C 151.769 226.234,153.484 229.010,154.358 229.288 C 154.713 229.400,155.700 230.454,156.552 231.628 C 157.404 232.803,159.665 235.392,161.576 237.382 C 164.689 240.623,165.123 241.232,165.746 243.239 C 166.755 246.490,167.295 247.426,169.461 249.677 C 173.130 253.491,176.394 257.394,176.549 258.154 C 176.635 258.572,176.793 259.471,176.902 260.151 C 177.104 261.417,179.216 264.254,179.958 264.256 C 180.180 264.256,180.864 264.992,181.478 265.892 C 182.093 266.792,183.128 267.952,183.779 268.470 L 184.964 269.413 186.711 268.032 C 187.672 267.272,188.458 266.449,188.458 266.202 C 188.458 265.684,189.884 264.255,190.401 264.255 C 191.172 264.255,192.210 262.555,193.105 259.830 C 193.649 258.173,194.499 256.421,195.110 255.695 C 196.471 254.081,199.261 251.077,201.063 249.287 C 201.836 248.519,202.898 247.153,203.421 246.253 C 203.944 245.353,204.507 244.617,204.672 244.617 C 205.743 244.617,207.437 242.347,208.101 240.021 C 209.080 236.596,210.276 234.909,215.440 229.678 C 216.352 228.754,217.515 227.359,218.024 226.578 C 218.533 225.797,219.918 224.221,221.102 223.076 C 222.933 221.306,223.256 220.813,223.256 219.794 C 223.256 218.214,224.313 216.287,226.483 213.913 C 230.923 209.053,232.316 207.419,233.436 205.755 C 234.098 204.773,235.062 203.710,235.580 203.393 C 238.673 201.498,238.615 201.570,239.242 198.874 C 240.436 193.742,240.722 193.636,241.837 197.912 C 242.497 200.444,242.550 201.612,242.550 213.682 C 242.550 230.284,242.922 229.007,235.950 236.275 C 235.170 237.087,233.811 238.717,232.930 239.896 C 232.048 241.075,230.544 242.772,229.587 243.668 C 228.112 245.047,227.779 245.598,227.406 247.282 C 226.826 249.897,226.261 250.937,224.792 252.097 C 224.123 252.626,223.121 253.755,222.566 254.608 C 222.012 255.461,221.126 256.445,220.598 256.795 C 220.070 257.145,219.018 258.353,218.260 259.478 C 217.502 260.604,215.952 262.418,214.815 263.510 C 212.934 265.316,212.686 265.727,212.068 268.062 C 211.465 270.342,211.185 270.821,209.568 272.351 C 208.566 273.299,207.748 274.249,207.749 274.463 C 207.751 274.678,206.589 276.058,205.167 277.532 C 203.343 279.422,202.472 280.616,202.211 281.587 C 202.007 282.344,201.478 283.784,201.034 284.787 C 200.120 286.853,200.120 286.852,202.714 287.984 L 204.394 288.717 280.869 288.717 C 352.915 288.717,357.403 288.682,358.359 288.117 C 360.317 286.961,360.020 285.350,357.358 282.687 C 355.883 281.211,355.578 280.669,355.228 278.898 C 354.592 275.680,354.544 275.587,352.488 273.562 C 351.421 272.512,350.122 270.926,349.601 270.036 C 349.080 269.147,348.180 267.909,347.602 267.285 C 346.425 266.014,345.384 264.066,345.036 262.482 C 344.588 260.441,343.488 258.470,342.094 257.211 C 340.548 255.814,339.707 254.169,339.707 252.541 C 339.707 250.918,338.873 249.282,337.487 248.191 C 336.795 247.646,335.896 246.658,335.489 245.995 C 335.081 245.332,334.662 244.711,334.557 244.617 C 332.911 243.135,331.277 240.203,331.035 238.296 C 330.887 237.130,330.772 208.423,330.779 174.502 C 330.786 140.582,330.692 112.569,330.571 112.252 C 329.802 110.250,325.717 110.691,324.588 112.897 C 324.058 113.935,324.038 245.854,324.568 247.264 C 324.768 247.798,325.547 248.864,326.299 249.634 C 327.363 250.724,327.823 251.600,328.378 253.596 C 329.203 256.560,330.330 258.673,331.701 259.826 C 332.231 260.273,333.159 261.335,333.762 262.188 C 334.365 263.041,335.348 264.203,335.946 264.772 C 337.138 265.904,338.089 267.831,338.471 269.884 C 338.827 271.803,339.912 273.696,341.456 275.090 C 343.022 276.506,343.519 280.807,342.238 281.870 C 341.313 282.638,230.978 282.751,230.132 281.985 C 229.723 281.615,229.464 280.662,229.311 278.965 L 229.086 276.486 231.339 274.112 C 232.578 272.806,233.590 271.566,233.588 271.356 C 233.570 269.289,235.242 265.790,236.777 264.683 C 237.677 264.034,238.672 262.956,238.989 262.288 C 239.306 261.620,240.018 260.798,240.571 260.462 C 241.123 260.126,242.084 259.097,242.706 258.177 C 243.328 257.256,244.919 255.415,246.241 254.085 C 248.016 252.299,248.706 251.341,248.879 250.419 C 249.281 248.273,250.709 245.151,251.467 244.758 C 252.563 244.191,253.589 243.176,254.136 242.118 C 254.407 241.595,255.306 240.542,256.136 239.778 C 259.148 237.001,258.900 240.334,259.028 200.861 C 259.152 162.320,259.193 163.172,257.111 161.173 L 255.926 160.034 254.707 161.413 C 254.036 162.171,253.031 163.410,252.474 164.167 C 251.916 164.923,250.928 165.981,250.278 166.518 C 248.750 167.777,247.558 169.885,247.028 172.265 C 246.673 173.858,246.264 174.517,244.457 176.400 C 243.276 177.631,241.968 179.139,241.551 179.749 C 241.135 180.360,240.367 181.111,239.846 181.419 C 239.325 181.727,238.686 182.458,238.427 183.043 C 238.168 183.628,237.164 184.892,236.195 185.852 C 233.704 188.320,233.084 189.312,232.017 192.539 C 231.185 195.057,230.861 195.578,229.213 197.047 C 228.189 197.960,227.088 199.185,226.767 199.769 C 226.447 200.353,225.653 201.186,225.004 201.621 C 224.355 202.056,223.467 203.088,223.031 203.915 C 222.595 204.741,221.886 205.714,221.455 206.077 C 218.601 208.481,218.050 209.307,216.663 213.264 C 216.037 215.047,215.436 215.947,213.710 217.676 C 212.517 218.871,211.542 220.052,211.542 220.300 C 211.542 220.548,210.960 221.154,210.250 221.648 C 208.974 222.535,208.487 223.130,207.386 225.151 C 207.076 225.719,206.188 226.649,205.413 227.218 C 204.638 227.786,203.995 228.429,203.983 228.645 C 203.972 228.862,203.738 229.125,203.463 229.230 C 203.189 229.336,202.796 230.089,202.589 230.904 C 201.929 233.508,201.079 235.094,199.300 237.040 C 198.345 238.083,197.078 239.634,196.484 240.485 C 195.891 241.336,194.922 242.343,194.333 242.722 C 193.743 243.101,192.703 244.216,192.022 245.199 C 190.414 247.522,188.458 247.707,188.458 245.537 C 188.458 245.286,187.334 243.977,185.960 242.628 C 180.108 236.883,178.113 234.195,177.583 231.336 C 177.386 230.274,176.849 229.513,175.142 227.876 C 173.939 226.721,172.954 225.661,172.954 225.520 C 172.954 224.966,170.833 222.357,169.853 221.705 C 169.282 221.326,168.732 220.755,168.630 220.436 C 168.527 220.117,167.507 218.884,166.363 217.696 C 164.131 215.380,162.826 213.171,162.425 211.032 C 162.230 209.996,161.648 209.188,159.813 207.406 C 158.513 206.145,157.450 204.968,157.450 204.790 C 157.450 204.116,155.691 201.914,154.808 201.483 C 154.301 201.236,153.564 200.455,153.171 199.748 C 152.777 199.041,151.886 197.993,151.191 197.421 C 149.788 196.264,148.370 193.947,147.736 191.777 C 147.100 189.601,145.534 187.266,144.053 186.286 C 143.264 185.764,142.416 184.776,141.976 183.868 C 141.559 183.007,140.657 181.934,139.920 181.423 C 139.198 180.923,138.389 180.092,138.123 179.576 C 137.857 179.061,136.826 177.887,135.831 176.968 C 134.836 176.049,134.022 175.080,134.022 174.815 C 134.022 174.549,133.898 174.332,133.746 174.332 C 133.593 174.332,133.130 173.281,132.717 171.997 C 131.798 169.145,130.393 166.904,129.217 166.414 C 128.733 166.213,127.753 165.142,127.038 164.035 C 124.583 160.234,123.426 160.069,121.732 163.276 L 120.930 164.794 120.930 200.040 C 120.930 243.427,120.798 242.031,125.151 244.733 C 125.684 245.064,126.098 245.630,126.098 246.026 C 126.098 246.422,127.007 247.664,128.173 248.861 C 133.691 254.525,136.399 258.085,136.427 259.711 C 136.446 260.893,138.243 263.919,139.044 264.120 C 140.024 264.366,141.605 266.120,141.596 266.951 C 141.593 267.269,142.435 268.381,143.468 269.423 C 144.500 270.465,146.342 272.403,147.561 273.730 L 149.777 276.141 149.988 278.775 C 150.165 280.966,150.106 281.488,149.638 281.876 C 148.794 282.577,58.951 282.571,58.106 281.870 C 56.975 280.931,57.311 276.293,58.571 275.452 C 59.139 275.073,59.846 274.298,60.143 273.730 C 60.440 273.161,60.898 272.308,61.162 271.835 C 61.426 271.361,61.913 270.049,62.244 268.919 C 62.636 267.578,63.356 266.262,64.316 265.129 C 66.724 262.288,67.555 260.692,67.770 258.500 C 67.952 256.641,68.111 256.345,70.072 254.217 C 72.572 251.504,75.153 248.542,75.522 247.961 C 76.000 247.209,75.835 112.908,75.355 112.317 C 75.124 112.033,74.352 111.365,73.639 110.832 C 72.927 110.300,72.128 109.370,71.864 108.765 C 71.600 108.160,70.526 106.698,69.478 105.515 C 67.883 103.717,67.427 102.891,66.688 100.468 C 65.944 98.028,65.491 97.214,63.824 95.316 C 62.734 94.076,61.533 92.635,61.154 92.112 C 60.775 91.590,59.895 90.590,59.198 89.890 C 57.463 88.150,56.901 84.141,58.271 83.273 C 60.237 82.027,61.680 81.998,121.918 81.998 C 189.791 81.998,185.304 81.783,185.828 85.061 C 186.421 88.767,190.980 88.470,192.343 84.637 C 192.624 83.849,193.118 82.466,193.441 81.565 C 194.004 79.998,194.988 78.606,197.616 75.662 C 198.274 74.925,199.074 73.879,199.394 73.337 C 199.714 72.795,200.174 72.351,200.415 72.351 C 200.657 72.351,201.421 71.497,202.115 70.453 L 203.375 68.555 202.744 67.155 C 201.375 64.119,208.138 64.413,141.294 64.486 C 108.776 64.521,80.155 64.659,77.692 64.794 M213.754 65.077 C 211.043 66.730,211.110 68.745,213.976 71.741 C 215.478 73.310,216.625 75.534,217.339 78.258 C 217.661 79.489,219.839 82.744,220.966 83.679 C 221.281 83.940,221.933 85.491,222.417 87.124 C 223.571 91.024,223.812 91.466,225.348 92.482 C 226.062 92.955,226.758 93.692,226.894 94.121 C 227.030 94.550,228.003 95.864,229.056 97.041 C 230.635 98.807,231.100 99.631,231.710 101.745 C 232.556 104.676,233.373 106.132,235.119 107.820 C 236.318 108.978,236.348 109.071,236.348 111.653 C 236.348 115.627,239.669 115.245,205.085 115.245 L 174.961 115.245 174.302 114.432 C 173.940 113.985,173.643 113.287,173.642 112.882 C 173.640 111.621,172.406 109.991,171.264 109.740 C 169.974 109.457,168.820 109.786,168.820 110.437 C 168.820 110.704,168.454 111.163,168.007 111.455 C 167.560 111.748,166.669 112.761,166.026 113.705 C 165.384 114.650,164.583 115.511,164.247 115.618 C 163.350 115.905,161.240 119.215,161.240 120.334 C 161.240 121.875,160.340 123.617,158.504 125.625 C 157.564 126.654,156.479 127.939,156.093 128.481 L 155.391 129.467 156.679 130.453 L 157.967 131.438 207.954 131.438 L 257.940 131.438 259.362 130.453 L 260.785 129.467 260.148 128.213 C 259.797 127.524,259.235 125.971,258.897 124.763 C 258.394 122.964,257.940 122.215,256.397 120.634 C 254.693 118.889,254.463 118.469,254.014 116.285 C 253.460 113.595,252.616 111.972,251.433 111.328 C 251.000 111.093,250.288 110.405,249.851 109.800 C 247.846 107.028,246.249 104.901,245.515 104.029 C 245.076 103.507,244.199 101.579,243.567 99.745 C 242.540 96.767,242.267 96.307,241.011 95.443 C 240.238 94.911,239.383 94.033,239.112 93.491 C 238.841 92.950,237.845 91.592,236.899 90.475 C 234.592 87.750,233.864 83.308,235.586 82.461 C 236.782 81.872,337.543 81.910,340.052 82.500 C 341.283 82.790,343.340 83.186,344.622 83.381 L 346.952 83.736 349.100 81.448 C 350.282 80.189,351.306 79.007,351.376 78.820 C 351.446 78.633,352.257 77.722,353.177 76.796 C 354.098 75.871,354.939 74.686,355.045 74.163 C 355.151 73.640,355.570 72.087,355.975 70.711 C 356.845 67.760,356.457 66.345,354.440 65.115 C 352.723 64.068,215.470 64.031,213.754 65.077 M209.044 91.801 C 208.304 92.481,207.752 93.311,207.752 93.744 C 207.752 95.665,206.330 99.282,205.354 99.842 C 204.805 100.157,203.996 101.185,203.498 102.199 L 202.617 103.997 203.364 104.970 C 204.519 106.475,204.352 106.449,212.868 106.455 L 220.913 106.460 222.101 105.272 L 223.288 104.085 222.591 102.774 C 221.693 101.087,221.178 100.457,220.327 100.003 C 219.708 99.672,219.119 98.231,217.712 93.601 C 216.747 90.424,211.687 89.374,209.044 91.801 M87.598 101.895 C 86.065 103.866,86.036 103.979,86.800 105.051 C 87.191 105.600,87.511 106.202,87.511 106.388 C 87.511 106.574,88.042 106.978,88.691 107.286 C 89.842 107.832,91.290 109.682,91.312 110.635 C 91.318 110.897,92.093 111.886,93.035 112.833 C 95.423 115.234,95.263 109.930,95.263 186.470 L 95.263 255.972 93.645 257.458 C 92.755 258.275,91.716 259.668,91.336 260.554 C 90.847 261.695,90.136 262.531,88.894 263.423 C 85.781 265.659,84.900 270.501,87.228 272.579 L 88.324 273.557 106.590 273.557 L 124.855 273.557 126.166 272.649 C 127.583 271.667,127.674 271.297,127.113 268.800 C 126.282 265.103,126.021 264.574,124.689 263.895 C 123.450 263.262,121.964 261.735,121.964 261.093 C 121.964 260.672,121.458 260.059,119.121 257.646 C 118.032 256.520,117.140 255.460,117.140 255.289 C 117.140 255.118,116.225 253.999,115.106 252.803 C 112.056 249.542,112.268 254.804,112.386 185.413 L 112.489 124.315 113.314 123.647 C 114.213 122.919,115.418 123.485,115.418 124.636 C 115.418 125.266,117.337 127.125,118.763 127.878 C 119.362 128.194,120.238 129.064,120.710 129.812 C 121.182 130.560,122.409 132.085,123.437 133.200 C 125.592 135.539,126.098 136.382,126.098 137.631 C 126.098 140.195,128.333 142.563,131.138 142.970 C 132.250 143.131,133.423 143.368,133.744 143.495 C 134.445 143.775,137.331 141.053,137.647 139.814 C 137.759 139.376,138.477 138.571,139.243 138.024 C 140.863 136.868,141.791 135.481,142.119 133.723 C 142.463 131.881,143.890 128.945,144.636 128.546 C 144.993 128.354,145.891 127.305,146.631 126.214 C 147.371 125.122,148.847 123.368,149.912 122.315 C 151.635 120.611,151.946 120.078,152.749 117.444 C 153.536 114.865,153.865 114.287,155.324 112.922 C 156.244 112.062,157.415 110.644,157.926 109.772 C 158.437 108.900,159.302 107.955,159.849 107.673 C 161.550 106.793,162.563 104.295,161.776 102.916 C 160.349 100.415,163.685 100.619,124.146 100.611 L 88.602 100.603 87.598 101.895 M264.338 101.449 C 261.628 102.717,261.576 103.010,263.097 108.527 C 263.444 109.785,264.212 110.870,266.150 112.835 C 267.097 113.796,268.260 115.176,268.734 115.902 C 269.208 116.628,270.161 117.863,270.853 118.647 C 271.754 119.667,272.417 121.012,273.185 123.376 C 274.170 126.405,274.386 126.771,275.782 127.773 C 276.619 128.375,277.408 129.213,277.534 129.636 C 277.660 130.059,278.565 131.258,279.544 132.300 C 281.616 134.504,282.151 135.427,283.181 138.569 C 283.966 140.966,284.779 142.243,286.391 143.614 C 287.273 144.364,287.339 144.603,287.339 147.076 C 287.339 150.433,287.207 150.560,283.720 150.560 C 281.017 150.560,280.893 150.596,279.865 151.680 C 277.517 154.154,277.692 150.208,277.692 200.667 L 277.692 246.329 275.982 247.626 C 274.467 248.775,274.188 249.198,273.532 251.335 C 272.701 254.039,271.624 256.331,271.185 256.331 C 271.025 256.331,269.956 257.455,268.810 258.829 C 267.664 260.202,265.941 262.141,264.980 263.137 C 264.020 264.133,262.914 265.573,262.524 266.338 C 262.134 267.102,261.449 267.867,261.002 268.037 C 258.736 268.899,257.913 271.366,259.458 272.665 L 260.518 273.557 291.220 273.557 L 321.921 273.557 323.060 272.782 C 324.877 271.545,324.548 269.889,322.048 267.689 C 320.836 266.622,320.569 266.100,319.886 263.461 C 319.101 260.429,318.389 259.184,316.240 257.086 L 315.073 255.946 314.966 187.491 C 314.845 110.552,314.685 115.537,317.368 112.527 C 318.989 110.708,320.413 107.825,320.413 106.362 C 320.413 106.018,320.636 105.306,320.908 104.779 C 321.369 103.890,321.344 103.757,320.553 102.905 C 318.470 100.659,320.094 100.784,291.817 100.688 L 266.150 100.600 264.338 101.449 M137.493 148.022 C 136.298 149.542,137.156 152.061,139.793 154.775 C 140.579 155.583,141.748 156.787,142.391 157.450 C 143.034 158.114,143.950 158.973,144.426 159.361 C 145.076 159.890,145.443 160.745,145.899 162.799 C 146.477 165.396,146.623 165.654,148.814 167.952 C 150.082 169.282,151.646 171.068,152.289 171.921 C 152.932 172.773,154.008 174.024,154.679 174.700 C 160.419 180.474,161.240 181.552,161.240 183.307 C 161.240 184.911,161.761 185.821,164.227 188.533 C 169.511 194.344,170.809 196.053,171.575 198.211 C 172.733 201.472,172.979 201.863,174.930 203.530 C 175.928 204.382,176.744 205.226,176.744 205.406 C 176.744 206.047,178.888 208.835,179.647 209.181 C 180.072 209.375,180.710 210.024,181.064 210.624 C 181.418 211.223,182.459 212.465,183.377 213.383 C 185.503 215.510,186.605 217.263,187.131 219.355 C 187.361 220.269,187.754 221.221,188.004 221.472 C 188.254 221.722,188.459 222.110,188.460 222.333 C 188.460 222.556,189.313 223.397,190.354 224.201 C 191.396 225.006,192.248 225.877,192.248 226.137 C 192.248 226.518,194.638 228.424,195.116 228.424 C 195.925 228.424,197.621 225.911,198.274 223.745 C 198.886 221.716,199.453 220.828,201.723 218.347 C 202.670 217.312,203.710 215.976,204.034 215.378 C 204.358 214.780,205.146 213.983,205.784 213.606 C 207.153 212.799,207.464 212.250,208.573 208.690 C 209.438 205.912,210.816 204.071,215.860 198.951 C 216.814 197.983,218.099 196.405,218.715 195.446 C 219.331 194.486,220.125 193.624,220.480 193.531 C 221.462 193.275,223.254 190.586,223.266 189.354 C 223.271 188.767,223.620 187.638,224.041 186.847 C 224.757 185.500,225.646 184.434,231.075 178.410 C 232.898 176.387,233.344 175.621,234.128 173.158 C 235.015 170.375,235.174 170.142,238.646 166.532 C 240.626 164.474,242.782 161.986,243.437 161.002 C 244.092 160.017,245.090 158.883,245.654 158.481 C 246.219 158.079,247.369 156.791,248.209 155.619 C 249.049 154.447,250.522 152.796,251.483 151.950 C 253.495 150.179,253.622 149.521,252.223 148.122 L 251.216 147.115 194.711 147.115 L 138.207 147.115 137.493 148.022 " stroke="none" fill="#fcfcfc" fill-rule="evenodd"></path><path id="path1" d="M8.075 53.851 C 7.980 54.098,7.946 56.307,8.000 58.761 L 8.096 63.221 10.594 63.323 L 13.092 63.424 13.092 67.738 C 13.092 73.165,13.199 73.385,15.826 73.385 L 17.846 73.385 17.967 77.852 C 18.109 83.089,18.234 83.317,21.134 83.616 L 23.084 83.817 23.084 85.614 C 23.084 91.439,23.901 93.236,26.644 93.436 L 28.079 93.540 28.184 95.766 C 28.318 98.618,28.559 98.880,31.050 98.880 L 33.075 98.880 33.075 103.121 C 33.075 108.334,33.210 108.590,36.080 108.798 L 38.144 108.947 38.337 112.622 C 38.608 117.745,39.156 118.640,42.205 118.935 C 43.227 119.034,43.241 119.063,43.411 121.447 L 43.583 123.859 46.081 123.960 L 48.579 124.061 48.579 180.032 L 48.579 236.003 46.761 236.003 C 43.594 236.003,43.411 236.306,43.411 241.535 L 43.411 245.995 41.240 245.995 C 38.248 245.995,38.243 246.004,38.243 251.576 L 38.243 256.331 35.659 256.331 L 33.075 256.331 33.075 258.915 L 33.075 261.499 31.897 261.499 C 29.214 261.499,28.620 262.541,28.346 267.733 L 28.148 271.490 26.029 271.490 C 23.107 271.490,23.084 271.534,23.084 276.884 L 23.084 281.451 20.586 281.553 L 18.088 281.654 17.916 284.238 L 17.743 286.822 16.365 287.013 C 13.510 287.409,13.092 288.424,13.092 294.970 L 13.092 296.641 11.050 296.641 C 7.890 296.641,7.924 296.555,7.924 304.381 C 7.924 310.133,7.998 311.066,8.469 311.247 C 9.320 311.573,391.502 311.481,392.018 311.154 C 392.380 310.925,392.452 309.512,392.362 304.453 C 392.230 297.015,392.210 296.967,389.215 296.718 L 387.353 296.564 387.133 292.899 C 386.809 287.532,386.491 286.994,383.633 286.994 L 382.458 286.994 382.357 284.324 L 382.257 281.654 379.759 281.553 L 377.261 281.451 377.261 276.827 C 377.261 271.494,377.259 271.490,374.062 271.490 L 372.196 271.490 371.998 267.733 C 371.719 262.452,371.263 261.707,368.131 261.421 L 367.097 261.326 366.996 258.829 L 366.895 256.331 364.498 256.331 L 362.102 256.331 362.102 251.576 C 362.102 246.018,362.089 245.995,359.157 245.995 L 357.039 245.995 356.824 242.244 C 356.517 236.869,356.372 236.654,352.799 236.269 L 351.938 236.176 351.851 180.103 L 351.764 124.031 353.935 124.031 C 356.917 124.031,356.934 124.001,356.934 118.637 L 356.934 114.070 359.432 113.969 L 361.929 113.867 362.031 111.370 L 362.132 108.872 363.862 108.872 C 366.908 108.872,366.925 108.842,366.925 103.519 L 366.925 98.880 369.122 98.880 C 371.804 98.880,372.025 98.653,372.161 95.766 C 372.264 93.571,372.280 93.539,373.299 93.440 C 376.354 93.144,376.873 92.349,377.148 87.540 L 377.362 83.798 379.224 83.643 C 382.078 83.407,382.236 83.115,382.370 77.853 L 382.484 73.385 384.481 73.385 C 386.916 73.385,387.182 73.109,387.319 70.445 L 387.425 68.389 388.630 68.293 C 391.844 68.035,392.242 67.059,392.246 59.432 L 392.248 53.575 200.248 53.488 C 42.680 53.417,8.216 53.482,8.075 53.851 M201.264 65.088 C 201.731 65.455,202.396 66.385,202.744 67.155 L 203.375 68.555 202.115 70.453 C 201.421 71.497,200.657 72.351,200.415 72.351 C 200.174 72.351,199.714 72.795,199.394 73.337 C 199.074 73.879,198.274 74.925,197.616 75.662 C 194.988 78.606,194.004 79.998,193.441 81.565 C 193.118 82.466,192.624 83.849,192.343 84.637 C 190.980 88.470,186.421 88.767,185.828 85.061 C 185.304 81.783,189.791 81.998,121.918 81.998 C 61.680 81.998,60.237 82.027,58.271 83.273 C 56.901 84.141,57.463 88.150,59.198 89.890 C 59.895 90.590,60.775 91.590,61.154 92.112 C 61.533 92.635,62.734 94.076,63.824 95.316 C 65.491 97.214,65.944 98.028,66.688 100.468 C 67.427 102.891,67.883 103.717,69.478 105.515 C 70.526 106.698,71.600 108.160,71.864 108.765 C 72.128 109.370,72.927 110.300,73.639 110.832 C 74.352 111.365,75.124 112.033,75.355 112.317 C 75.835 112.908,76.000 247.209,75.522 247.961 C 75.153 248.542,72.572 251.504,70.072 254.217 C 68.111 256.345,67.952 256.641,67.770 258.500 C 67.555 260.692,66.724 262.288,64.316 265.129 C 63.356 266.262,62.636 267.578,62.244 268.919 C 61.913 270.049,61.426 271.361,61.162 271.835 C 60.898 272.308,60.440 273.161,60.143 273.730 C 59.846 274.298,59.139 275.073,58.571 275.452 C 57.311 276.293,56.975 280.931,58.106 281.870 C 58.951 282.571,148.794 282.577,149.638 281.876 C 150.106 281.488,150.165 280.966,149.988 278.775 L 149.777 276.141 147.561 273.730 C 146.342 272.403,144.500 270.465,143.468 269.423 C 142.435 268.381,141.593 267.269,141.596 266.951 C 141.605 266.120,140.024 264.366,139.044 264.120 C 138.243 263.919,136.446 260.893,136.427 259.711 C 136.399 258.085,133.691 254.525,128.173 248.861 C 127.007 247.664,126.098 246.422,126.098 246.026 C 126.098 245.630,125.684 245.064,125.151 244.733 C 120.798 242.031,120.930 243.427,120.930 200.040 L 120.930 164.794 121.732 163.276 C 123.426 160.069,124.583 160.234,127.038 164.035 C 127.753 165.142,128.733 166.213,129.217 166.414 C 130.393 166.904,131.798 169.145,132.717 171.997 C 133.130 173.281,133.593 174.332,133.746 174.332 C 133.898 174.332,134.022 174.549,134.022 174.815 C 134.022 175.080,134.836 176.049,135.831 176.968 C 136.826 177.887,137.857 179.061,138.123 179.576 C 138.389 180.092,139.198 180.923,139.920 181.423 C 140.657 181.934,141.559 183.007,141.976 183.868 C 142.416 184.776,143.264 185.764,144.053 186.286 C 145.534 187.266,147.100 189.601,147.736 191.777 C 148.370 193.947,149.788 196.264,151.191 197.421 C 151.886 197.993,152.777 199.041,153.171 199.748 C 153.564 200.455,154.301 201.236,154.808 201.483 C 155.691 201.914,157.450 204.116,157.450 204.790 C 157.450 204.968,158.513 206.145,159.813 207.406 C 161.648 209.188,162.230 209.996,162.425 211.032 C 162.826 213.171,164.131 215.380,166.363 217.696 C 167.507 218.884,168.527 220.117,168.630 220.436 C 168.732 220.755,169.282 221.326,169.853 221.705 C 170.833 222.357,172.954 224.966,172.954 225.520 C 172.954 225.661,173.939 226.721,175.142 227.876 C 176.849 229.513,177.386 230.274,177.583 231.336 C 178.113 234.195,180.108 236.883,185.960 242.628 C 187.334 243.977,188.458 245.286,188.458 245.537 C 188.458 247.707,190.414 247.522,192.022 245.199 C 192.703 244.216,193.743 243.101,194.333 242.722 C 194.922 242.343,195.891 241.336,196.484 240.485 C 197.078 239.634,198.345 238.083,199.300 237.040 C 201.079 235.094,201.929 233.508,202.589 230.904 C 202.796 230.089,203.189 229.336,203.463 229.230 C 203.738 229.125,203.972 228.862,203.983 228.645 C 203.995 228.429,204.638 227.786,205.413 227.218 C 206.188 226.649,207.076 225.719,207.386 225.151 C 208.487 223.130,208.974 222.535,210.250 221.648 C 210.960 221.154,211.542 220.548,211.542 220.300 C 211.542 220.052,212.517 218.871,213.710 217.676 C 215.436 215.947,216.037 215.047,216.663 213.264 C 218.050 209.307,218.601 208.481,221.455 206.077 C 221.886 205.714,222.595 204.741,223.031 203.915 C 223.467 203.088,224.355 202.056,225.004 201.621 C 225.653 201.186,226.447 200.353,226.767 199.769 C 227.088 199.185,228.189 197.960,229.213 197.047 C 230.861 195.578,231.185 195.057,232.017 192.539 C 233.084 189.312,233.704 188.320,236.195 185.852 C 237.164 184.892,238.168 183.628,238.427 183.043 C 238.686 182.458,239.325 181.727,239.846 181.419 C 240.367 181.111,241.135 180.360,241.551 179.749 C 241.968 179.139,243.276 177.631,244.457 176.400 C 246.264 174.517,246.673 173.858,247.028 172.265 C 247.558 169.885,248.750 167.777,250.278 166.518 C 250.928 165.981,251.916 164.923,252.474 164.167 C 253.031 163.410,254.036 162.171,254.707 161.413 L 255.926 160.034 257.111 161.173 C 259.193 163.172,259.152 162.320,259.028 200.861 C 258.900 240.334,259.148 237.001,256.136 239.778 C 255.306 240.542,254.407 241.595,254.136 242.118 C 253.589 243.176,252.563 244.191,251.467 244.758 C 250.709 245.151,249.281 248.273,248.879 250.419 C 248.706 251.341,248.016 252.299,246.241 254.085 C 244.919 255.415,243.328 257.256,242.706 258.177 C 242.084 259.097,241.123 260.126,240.571 260.462 C 240.018 260.798,239.306 261.620,238.989 262.288 C 238.672 262.956,237.677 264.034,236.777 264.683 C 235.242 265.790,233.570 269.289,233.588 271.356 C 233.590 271.566,232.578 272.806,231.339 274.112 L 229.086 276.486 229.311 278.965 C 229.464 280.662,229.723 281.615,230.132 281.985 C 230.978 282.751,341.313 282.638,342.238 281.870 C 343.519 280.807,343.022 276.506,341.456 275.090 C 339.912 273.696,338.827 271.803,338.471 269.884 C 338.089 267.831,337.138 265.904,335.946 264.772 C 335.348 264.203,334.365 263.041,333.762 262.188 C 333.159 261.335,332.231 260.273,331.701 259.826 C 330.330 258.673,329.203 256.560,328.378 253.596 C 327.823 251.600,327.363 250.724,326.299 249.634 C 325.547 248.864,324.768 247.798,324.568 247.264 C 324.038 245.854,324.058 113.935,324.588 112.897 C 325.717 110.691,329.802 110.250,330.571 112.252 C 330.692 112.569,330.786 140.582,330.779 174.502 C 330.772 208.423,330.887 237.130,331.035 238.296 C 331.277 240.203,332.911 243.135,334.557 244.617 C 334.662 244.711,335.081 245.332,335.489 245.995 C 335.896 246.658,336.795 247.646,337.487 248.191 C 338.873 249.282,339.707 250.918,339.707 252.541 C 339.707 254.169,340.548 255.814,342.094 257.211 C 343.488 258.470,344.588 260.441,345.036 262.482 C 345.384 264.066,346.425 266.014,347.602 267.285 C 348.180 267.909,349.080 269.147,349.601 270.036 C 350.122 270.926,351.421 272.512,352.488 273.562 C 354.544 275.587,354.592 275.680,355.228 278.898 C 355.578 280.669,355.883 281.211,357.358 282.687 C 360.020 285.350,360.317 286.961,358.359 288.117 C 357.403 288.682,352.915 288.717,280.869 288.717 L 204.394 288.717 202.714 287.984 C 200.120 286.852,200.120 286.853,201.034 284.787 C 201.478 283.784,202.007 282.344,202.211 281.587 C 202.472 280.616,203.343 279.422,205.167 277.532 C 206.589 276.058,207.751 274.678,207.749 274.463 C 207.748 274.249,208.566 273.299,209.568 272.351 C 211.185 270.821,211.465 270.342,212.068 268.062 C 212.686 265.727,212.934 265.316,214.815 263.510 C 215.952 262.418,217.502 260.604,218.260 259.478 C 219.018 258.353,220.070 257.145,220.598 256.795 C 221.126 256.445,222.012 255.461,222.566 254.608 C 223.121 253.755,224.123 252.626,224.792 252.097 C 226.261 250.937,226.826 249.897,227.406 247.282 C 227.779 245.598,228.112 245.047,229.587 243.668 C 230.544 242.772,232.048 241.075,232.930 239.896 C 233.811 238.717,235.170 237.087,235.950 236.275 C 242.922 229.007,242.550 230.284,242.550 213.682 C 242.550 195.489,241.315 189.963,239.242 198.874 C 238.615 201.570,238.673 201.498,235.580 203.393 C 235.062 203.710,234.098 204.773,233.436 205.755 C 232.316 207.419,230.923 209.053,226.483 213.913 C 224.313 216.287,223.256 218.214,223.256 219.794 C 223.256 220.813,222.933 221.306,221.102 223.076 C 219.918 224.221,218.533 225.797,218.024 226.578 C 217.515 227.359,216.352 228.754,215.440 229.678 C 210.276 234.909,209.080 236.596,208.101 240.021 C 207.437 242.347,205.743 244.617,204.672 244.617 C 204.507 244.617,203.944 245.353,203.421 246.253 C 202.898 247.153,201.836 248.519,201.063 249.287 C 199.261 251.077,196.471 254.081,195.110 255.695 C 194.499 256.421,193.649 258.173,193.105 259.830 C 192.210 262.555,191.172 264.255,190.401 264.255 C 189.884 264.255,188.458 265.684,188.458 266.202 C 188.458 266.449,187.672 267.272,186.711 268.032 L 184.964 269.413 183.779 268.470 C 183.128 267.952,182.093 266.792,181.478 265.892 C 180.864 264.992,180.180 264.256,179.958 264.256 C 179.216 264.254,177.104 261.417,176.902 260.151 C 176.793 259.471,176.635 258.572,176.549 258.154 C 176.394 257.394,173.130 253.491,169.461 249.677 C 167.295 247.426,166.755 246.490,165.746 243.239 C 165.123 241.232,164.689 240.623,161.576 237.382 C 159.665 235.392,157.404 232.803,156.552 231.628 C 155.700 230.454,154.713 229.400,154.358 229.288 C 153.484 229.010,151.769 226.234,151.139 224.075 C 150.378 221.472,149.776 220.483,147.859 218.690 C 146.909 217.801,145.872 216.643,145.555 216.117 C 145.237 215.590,144.374 214.694,143.637 214.126 C 142.899 213.557,141.880 212.351,141.372 211.446 C 140.864 210.540,140.050 209.608,139.563 209.375 C 138.334 208.786,136.597 206.000,135.777 203.301 C 134.740 199.891,134.633 199.802,131.452 199.723 C 127.965 199.637,128.233 198.350,128.240 215.159 C 128.248 230.660,128.200 230.201,130.009 232.255 C 131.598 234.059,131.964 234.750,132.997 237.898 C 133.715 240.086,134.143 240.688,137.598 244.378 C 139.693 246.616,142.000 249.281,142.725 250.302 C 143.449 251.323,144.337 252.252,144.698 252.367 C 145.059 252.482,145.842 253.382,146.439 254.367 C 147.036 255.352,148.576 257.166,149.862 258.398 C 151.317 259.792,152.289 261.028,152.435 261.671 C 153.310 265.511,153.700 266.308,155.251 267.421 C 156.126 268.050,157.187 269.251,157.700 270.193 C 158.197 271.107,158.997 272.044,159.477 272.275 C 160.618 272.826,162.110 275.019,162.810 277.175 C 163.891 280.505,164.653 281.750,166.702 283.533 C 169.733 286.169,169.751 286.846,166.823 288.000 L 165.005 288.717 98.994 288.717 C 33.365 288.717,32.978 288.713,31.858 288.021 C 30.066 286.913,30.228 284.636,32.176 283.554 C 32.576 283.332,33.368 282.538,33.936 281.790 C 34.505 281.041,35.125 280.239,35.314 280.007 C 38.465 276.144,38.947 275.403,39.454 273.628 C 40.778 269.003,41.005 268.562,42.747 267.257 C 43.423 266.749,44.199 265.917,44.469 265.407 C 44.740 264.898,45.775 263.678,46.770 262.697 C 47.868 261.615,48.579 260.615,48.579 260.153 C 48.579 257.693,49.877 254.943,52.337 252.196 C 53.510 250.885,54.565 248.793,54.961 246.992 C 55.352 245.208,56.517 243.225,58.038 241.748 L 59.432 240.396 59.528 177.285 L 59.625 114.174 57.933 112.572 C 56.699 111.404,56.178 110.616,56.007 109.662 C 55.500 106.826,54.328 103.798,53.553 103.321 C 52.790 102.852,50.301 99.440,50.301 98.863 C 50.301 97.400,48.441 92.981,47.620 92.494 C 46.597 91.888,44.797 89.571,44.776 88.834 C 44.769 88.580,44.157 87.953,43.417 87.441 C 41.494 86.112,40.979 85.136,40.407 81.735 C 39.894 78.683,39.017 77.122,37.555 76.658 C 36.720 76.394,35.658 74.266,34.823 71.188 C 33.986 68.104,34.112 67.660,36.287 66.001 L 37.447 65.116 55.330 65.077 C 65.165 65.055,75.228 64.928,77.692 64.794 C 89.865 64.130,200.382 64.394,201.264 65.088 M354.440 65.115 C 356.457 66.345,356.845 67.760,355.975 70.711 C 355.570 72.087,355.151 73.640,355.045 74.163 C 354.939 74.686,354.098 75.871,353.177 76.796 C 352.257 77.722,351.446 78.633,351.376 78.820 C 351.306 79.007,350.282 80.189,349.100 81.448 L 346.952 83.736 344.622 83.381 C 343.340 83.186,341.283 82.790,340.052 82.500 C 337.543 81.910,236.782 81.872,235.586 82.461 C 233.864 83.308,234.592 87.750,236.899 90.475 C 237.845 91.592,238.841 92.950,239.112 93.491 C 239.383 94.033,240.238 94.911,241.011 95.443 C 242.267 96.307,242.540 96.767,243.567 99.745 C 244.199 101.579,245.076 103.507,245.515 104.029 C 246.249 104.901,247.846 107.028,249.851 109.800 C 250.288 110.405,251.000 111.093,251.433 111.328 C 252.616 111.972,253.460 113.595,254.014 116.285 C 254.463 118.469,254.693 118.889,256.397 120.634 C 257.940 122.215,258.394 122.964,258.897 124.763 C 259.235 125.971,259.797 127.524,260.148 128.213 L 260.785 129.467 259.362 130.453 L 257.940 131.438 207.954 131.438 L 157.967 131.438 156.679 130.453 L 155.391 129.467 156.093 128.481 C 156.479 127.939,157.564 126.654,158.504 125.625 C 160.340 123.617,161.240 121.875,161.240 120.334 C 161.240 119.215,163.350 115.905,164.247 115.618 C 164.583 115.511,165.384 114.650,166.026 113.705 C 166.669 112.761,167.560 111.748,168.007 111.455 C 168.454 111.163,168.820 110.704,168.820 110.437 C 168.820 109.786,169.974 109.457,171.264 109.740 C 172.406 109.991,173.640 111.621,173.642 112.882 C 173.643 113.287,173.940 113.985,174.302 114.432 L 174.961 115.245 205.085 115.245 C 239.669 115.245,236.348 115.627,236.348 111.653 C 236.348 109.071,236.318 108.978,235.119 107.820 C 233.373 106.132,232.556 104.676,231.710 101.745 C 231.100 99.631,230.635 98.807,229.056 97.041 C 228.003 95.864,227.030 94.550,226.894 94.121 C 226.758 93.692,226.062 92.955,225.348 92.482 C 223.812 91.466,223.571 91.024,222.417 87.124 C 221.933 85.491,221.281 83.940,220.966 83.679 C 219.839 82.744,217.661 79.489,217.339 78.258 C 216.625 75.534,215.478 73.310,213.976 71.741 C 211.110 68.745,211.043 66.730,213.754 65.077 C 215.470 64.031,352.723 64.068,354.440 65.115 M216.338 91.619 C 216.931 92.174,217.550 93.065,217.712 93.601 C 219.119 98.231,219.708 99.672,220.327 100.003 C 221.178 100.457,221.693 101.087,222.591 102.774 L 223.288 104.085 222.101 105.272 L 220.913 106.460 212.868 106.455 C 204.352 106.449,204.519 106.475,203.364 104.970 L 202.617 103.997 203.498 102.199 C 203.996 101.185,204.805 100.157,205.354 99.842 C 206.330 99.282,207.752 95.665,207.752 93.744 C 207.752 90.915,213.943 89.383,216.338 91.619 M160.417 101.214 C 162.721 103.099,162.437 106.334,159.849 107.673 C 159.302 107.955,158.437 108.900,157.926 109.772 C 157.415 110.644,156.244 112.062,155.324 112.922 C 153.865 114.287,153.536 114.865,152.749 117.444 C 151.946 120.078,151.635 120.611,149.912 122.315 C 148.847 123.368,147.371 125.122,146.631 126.214 C 145.891 127.305,144.993 128.354,144.636 128.546 C 143.890 128.945,142.463 131.881,142.119 133.723 C 141.791 135.481,140.863 136.868,139.243 138.024 C 138.477 138.571,137.759 139.376,137.647 139.814 C 137.331 141.053,134.445 143.775,133.744 143.495 C 133.423 143.368,132.250 143.131,131.138 142.970 C 128.333 142.563,126.098 140.195,126.098 137.631 C 126.098 136.382,125.592 135.539,123.437 133.200 C 122.409 132.085,121.182 130.560,120.710 129.812 C 120.238 129.064,119.362 128.194,118.763 127.878 C 117.337 127.125,115.418 125.266,115.418 124.636 C 115.418 123.485,114.213 122.919,113.314 123.647 L 112.489 124.315 112.386 185.413 C 112.268 254.804,112.056 249.542,115.106 252.803 C 116.225 253.999,117.140 255.118,117.140 255.289 C 117.140 255.460,118.032 256.520,119.121 257.646 C 121.458 260.059,121.964 260.672,121.964 261.093 C 121.964 261.735,123.450 263.262,124.689 263.895 C 126.021 264.574,126.282 265.103,127.113 268.800 C 127.674 271.297,127.583 271.667,126.166 272.649 L 124.855 273.557 106.590 273.557 L 88.324 273.557 87.228 272.579 C 84.900 270.501,85.781 265.659,88.894 263.423 C 90.136 262.531,90.847 261.695,91.336 260.554 C 91.716 259.668,92.755 258.275,93.645 257.458 L 95.263 255.972 95.263 186.470 C 95.263 109.930,95.423 115.234,93.035 112.833 C 92.093 111.886,91.318 110.897,91.312 110.635 C 91.290 109.682,89.842 107.832,88.691 107.286 C 88.042 106.978,87.511 106.574,87.511 106.388 C 87.511 106.202,87.191 105.600,86.800 105.051 C 86.036 103.979,86.065 103.866,87.598 101.895 L 88.602 100.603 124.146 100.611 C 157.306 100.618,159.739 100.658,160.417 101.214 M318.594 101.381 C 320.704 102.535,321.480 103.674,320.908 104.779 C 320.636 105.306,320.413 106.018,320.413 106.362 C 320.413 107.825,318.989 110.708,317.368 112.527 C 314.685 115.537,314.845 110.552,314.966 187.491 L 315.073 255.946 316.240 257.086 C 318.389 259.184,319.101 260.429,319.886 263.461 C 320.569 266.100,320.836 266.622,322.048 267.689 C 324.548 269.889,324.877 271.545,323.060 272.782 L 321.921 273.557 291.220 273.557 L 260.518 273.557 259.458 272.665 C 257.913 271.366,258.736 268.899,261.002 268.037 C 261.449 267.867,262.134 267.102,262.524 266.338 C 262.914 265.573,264.020 264.133,264.980 263.137 C 265.941 262.141,267.664 260.202,268.810 258.829 C 269.956 257.455,271.025 256.331,271.185 256.331 C 271.624 256.331,272.701 254.039,273.532 251.335 C 274.188 249.198,274.467 248.775,275.982 247.626 L 277.692 246.329 277.692 200.667 C 277.692 150.208,277.517 154.154,279.865 151.680 C 280.893 150.596,281.017 150.560,283.720 150.560 C 287.207 150.560,287.339 150.433,287.339 147.076 C 287.339 144.603,287.273 144.364,286.391 143.614 C 284.779 142.243,283.966 140.966,283.181 138.569 C 282.151 135.427,281.616 134.504,279.544 132.300 C 278.565 131.258,277.660 130.059,277.534 129.636 C 277.408 129.213,276.619 128.375,275.782 127.773 C 274.386 126.771,274.170 126.405,273.185 123.376 C 272.417 121.012,271.754 119.667,270.853 118.647 C 270.161 117.863,269.208 116.628,268.734 115.902 C 268.260 115.176,267.097 113.796,266.150 112.835 C 264.212 110.870,263.444 109.785,263.097 108.527 C 261.576 103.010,261.628 102.717,264.338 101.449 L 266.150 100.600 291.817 100.688 C 315.565 100.769,317.568 100.821,318.594 101.381 M252.223 148.122 C 253.622 149.521,253.495 150.179,251.483 151.950 C 250.522 152.796,249.049 154.447,248.209 155.619 C 247.369 156.791,246.219 158.079,245.654 158.481 C 245.090 158.883,244.092 160.017,243.437 161.002 C 242.782 161.986,240.626 164.474,238.646 166.532 C 235.174 170.142,235.015 170.375,234.128 173.158 C 233.344 175.621,232.898 176.387,231.075 178.410 C 225.646 184.434,224.757 185.500,224.041 186.847 C 223.620 187.638,223.271 188.767,223.266 189.354 C 223.254 190.586,221.462 193.275,220.480 193.531 C 220.125 193.624,219.331 194.486,218.715 195.446 C 218.099 196.405,216.814 197.983,215.860 198.951 C 210.816 204.071,209.438 205.912,208.573 208.690 C 207.464 212.250,207.153 212.799,205.784 213.606 C 205.146 213.983,204.358 214.780,204.034 215.378 C 203.710 215.976,202.670 217.312,201.723 218.347 C 199.453 220.828,198.886 221.716,198.274 223.745 C 197.621 225.911,195.925 228.424,195.116 228.424 C 194.638 228.424,192.248 226.518,192.248 226.137 C 192.248 225.877,191.396 225.006,190.354 224.201 C 189.313 223.397,188.460 222.556,188.460 222.333 C 188.459 222.110,188.254 221.722,188.004 221.472 C 187.754 221.221,187.361 220.269,187.131 219.355 C 186.605 217.263,185.503 215.510,183.377 213.383 C 182.459 212.465,181.418 211.223,181.064 210.624 C 180.710 210.024,180.072 209.375,179.647 209.181 C 178.888 208.835,176.744 206.047,176.744 205.406 C 176.744 205.226,175.928 204.382,174.930 203.530 C 172.979 201.863,172.733 201.472,171.575 198.211 C 170.809 196.053,169.511 194.344,164.227 188.533 C 161.761 185.821,161.240 184.911,161.240 183.307 C 161.240 181.552,160.419 180.474,154.679 174.700 C 154.008 174.024,152.932 172.773,152.289 171.921 C 151.646 171.068,150.082 169.282,148.814 167.952 C 146.623 165.654,146.477 165.396,145.899 162.799 C 145.443 160.745,145.076 159.890,144.426 159.361 C 143.950 158.973,143.034 158.114,142.391 157.450 C 141.748 156.787,140.579 155.583,139.793 154.775 C 137.156 152.061,136.298 149.542,137.493 148.022 L 138.207 147.115 194.711 147.115 L 251.216 147.115 252.223 148.122 " stroke="none" fill="#060606" fill-rule="evenodd"></path></g></svg>